# xmcd
#
# Track frame offsets:
#	150
#	16262
#	35242
#	48725
#	66104
#	82809
#	100962
#	116250
#	132539
#	147618
#	165137
#	181513
#
# Disc length: 2655 seconds
#
# Revision: 0
# Processed by: cddbd v1.5.2PL0 Copyright (c) Steve Scherf et al.
# Submitted via: EasyCDDAExtractor 2010.6.0.0
#
DISCID=9b0a5d0c
DTITLE=Jo Vally - Het beste van
DYEAR=1900
DGENRE=
TTITLE0=In een droom zag ik je staan
TTITLE1=Aan alle vrouwen
TTITLE2=Ik hoor mandolines
TTITLE3=Nooit was een zomer
TTITLE4=Mooi is het leven
TTITLE5=Ik neem jou mee
TTITLE6=Liefdesliedjes doen zo 'n pijn
TTITLE7=Voor mij geen liefde meer
TTITLE8=De Zomer in je ogen
TTITLE9=Mijn vriendin
TTITLE10=Geluk en liefde
TTITLE11=Had ik nu maar vleugels
EXTD=
EXTT0=
EXTT1=
EXTT2=
EXTT3=
EXTT4=
EXTT5=
EXTT6=
EXTT7=
EXTT8=
EXTT9=
EXTT10=
EXTT11=
PLAYORDER=
